<?xml version="1.0" encoding="utf-8"?>
<!-- Generated by IcoMoon.io -->
<svg version="1.1" xmlns="http://www.w3.org/2000/svg" xmlns:xlink="http://www.w3.org/1999/xlink" width="496" height="16" viewBox="0 0 496 16">
<svg id="icon-r" width="14" height="16" viewBox="0 0 14 16" x="0" y="0">
<path fill="#fff" d="M4.571 11.429c0-0.634-0.509-1.143-1.143-1.143s-1.143 0.509-1.143 1.143 0.509 1.143 1.143 1.143 1.143-0.509 1.143-1.143zM7.705 12.268c-0.152-2.768-2.348-4.964-5.116-5.116-0.080-0.009-0.161 0.027-0.214 0.080s-0.089 0.125-0.089 0.205v1.143c0 0.152 0.116 0.277 0.268 0.286 1.83 0.134 3.304 1.607 3.437 3.438 0.009 0.152 0.134 0.268 0.286 0.268h1.143c0.080 0 0.152-0.036 0.205-0.089s0.089-0.134 0.080-0.214zM11.134 12.277c-0.152-4.643-3.911-8.402-8.554-8.554-0.089-0.009-0.152 0.018-0.205 0.080-0.054 0.054-0.089 0.125-0.089 0.205v1.143c0 0.152 0.125 0.277 0.277 0.286 3.705 0.134 6.723 3.152 6.857 6.857 0.009 0.152 0.134 0.277 0.286 0.277h1.143c0.080 0 0.152-0.036 0.205-0.089 0.063-0.054 0.089-0.125 0.080-0.205zM13.714 3.714v8.571c0 1.42-1.152 2.571-2.571 2.571h-8.571c-1.42 0-2.571-1.152-2.571-2.571v-8.571c0-1.42 1.152-2.571 2.571-2.571h8.571c1.42 0 2.571 1.152 2.571 2.571z"></path>
</svg>
<svg id="icon-g" width="14" height="16" viewBox="0 0 14 16" x="32" y="0">
<path fill="#fff" d="M4.634 10.714v0c0.018-0.027 0.009-0.080-0.027-0.116-0.045-0.036-0.098-0.045-0.125-0.018-0.018 0.027-0.009 0.080 0.027 0.116 0.045 0.036 0.098 0.045 0.125 0.018zM4.384 10.348c-0.027-0.036-0.071-0.054-0.107-0.036-0.027 0.018-0.027 0.071 0 0.107 0.036 0.045 0.080 0.063 0.107 0.045v0c0.027-0.018 0.027-0.071 0-0.116zM4.018 9.991v0c0.009-0.018-0.009-0.054-0.045-0.071-0.027-0.009-0.063-0.009-0.071 0.018-0.018 0.027 0 0.054 0.036 0.071 0.036 0.009 0.071 0.009 0.080-0.018zM4.205 10.196v0c0.018-0.018 0.018-0.063-0.018-0.089-0.027-0.036-0.071-0.045-0.089-0.027-0.027 0.027-0.018 0.063 0.009 0.098 0.027 0.027 0.071 0.045 0.098 0.018zM4.973 10.866v0c0.009-0.036-0.027-0.080-0.080-0.098s-0.098 0-0.116 0.036c-0.009 0.036 0.027 0.080 0.080 0.098s0.098 0 0.116-0.036zM5.348 10.893v0c0-0.036-0.045-0.071-0.107-0.071-0.054 0-0.089 0.036-0.089 0.071s0.045 0.071 0.098 0.071 0.098-0.036 0.098-0.071zM5.696 10.83v0c-0.009-0.036-0.063-0.054-0.116-0.045s-0.089 0.045-0.080 0.080 0.054 0.063 0.107 0.054 0.089-0.054 0.089-0.089zM11.429 8c0-2.527-2.045-4.571-4.571-4.571s-4.571 2.045-4.571 4.571c0 2.018 1.313 3.732 3.125 4.339 0.232 0.045 0.313-0.098 0.313-0.223 0-0.107 0-0.464-0.009-0.848 0 0-1.268 0.277-1.536-0.545 0 0-0.205-0.527-0.509-0.661 0 0-0.411-0.286 0.036-0.286 0 0 0.446 0.036 0.696 0.473 0.402 0.705 1.071 0.5 1.33 0.384 0.045-0.295 0.161-0.5 0.295-0.616-1.018-0.116-2.089-0.509-2.089-2.259 0-0.5 0.179-0.902 0.473-1.223-0.045-0.116-0.205-0.58 0.045-1.214 0.384-0.116 1.259 0.473 1.259 0.473 0.366-0.107 0.75-0.152 1.143-0.152s0.777 0.045 1.143 0.152c0 0 0.875-0.589 1.259-0.473 0.25 0.634 0.089 1.098 0.045 1.214 0.295 0.321 0.473 0.723 0.473 1.223 0 1.759-1.071 2.143-2.089 2.259 0.161 0.143 0.313 0.42 0.313 0.848 0 0.607-0.009 1.098-0.009 1.25 0 0.125 0.080 0.268 0.313 0.223 1.813-0.607 3.125-2.321 3.125-4.339zM13.714 3.714v8.571c0 1.42-1.152 2.571-2.571 2.571h-8.571c-1.42 0-2.571-1.152-2.571-2.571v-8.571c0-1.42 1.152-2.571 2.571-2.571h8.571c1.42 0 2.571 1.152 2.571 2.571z"></path>
</svg>
<svg id="icon-f" width="14" height="16" viewBox="0 0 14 16" x="64" y="0">
<path fill="#fff" d="M11.143 1.143c1.42 0 2.571 1.152 2.571 2.571v8.571c0 1.42-1.152 2.571-2.571 2.571h-1.679v-5.313h1.777l0.268-2.071h-2.045v-1.321c0-0.598 0.161-1 1.027-1l1.089-0.009v-1.848c-0.188-0.027-0.839-0.080-1.589-0.080-1.58 0-2.67 0.964-2.67 2.732v1.527h-1.786v2.071h1.786v5.313h-4.75c-1.42 0-2.571-1.152-2.571-2.571v-8.571c0-1.42 1.152-2.571 2.571-2.571h8.571z"></path>
</svg>
<svg id="icon-t" width="14" height="16" viewBox="0 0 14 16" x="96" y="0">
<path fill="#fff" d="M11.429 5.446c-0.339 0.152-0.696 0.25-1.080 0.304 0.393-0.232 0.688-0.607 0.83-1.045-0.366 0.214-0.768 0.375-1.196 0.455-0.339-0.366-0.83-0.589-1.366-0.589-1.036 0-1.875 0.839-1.875 1.875 0 0.143 0.009 0.295 0.045 0.429-1.563-0.080-2.946-0.821-3.875-1.964-0.161 0.277-0.259 0.607-0.259 0.946 0 0.652 0.304 1.223 0.813 1.563-0.313-0.009-0.607-0.098-0.893-0.232v0.018c0 0.911 0.688 1.67 1.545 1.839-0.161 0.045-0.286 0.071-0.455 0.071-0.116 0-0.232-0.018-0.348-0.036 0.241 0.741 0.929 1.286 1.75 1.304-0.643 0.5-1.446 0.804-2.33 0.804-0.152 0-0.304-0.009-0.446-0.027 0.83 0.527 1.813 0.839 2.875 0.839 3.446 0 5.339-2.857 5.339-5.339 0-0.080 0-0.161-0.009-0.241 0.366-0.259 0.688-0.589 0.938-0.973zM13.714 3.714v8.571c0 1.42-1.152 2.571-2.571 2.571h-8.571c-1.42 0-2.571-1.152-2.571-2.571v-8.571c0-1.42 1.152-2.571 2.571-2.571h8.571c1.42 0 2.571 1.152 2.571 2.571z"></path>
</svg>
</svg>
